{
    "asset" : {
        "generator" : "Khronos glTF Blender I/O v1.3.48. Modified by DS Enterprise PBR Validation Suite Scene Generator.", 
        "version" : "2.0"
    }, 
    "extensionsUsed" : [
        "KHR_lights_punctual", 
        "KHR_materials_specular"
    ], 
    "extensionsRequired" : [
        "KHR_lights_punctual", 
        "KHR_materials_specular"
    ], 
    "extensions" : {
        "KHR_lights_punctual" : {
            "lights" : [
                {
                    "color" : [
                        1, 
                        1, 
                        1
                    ], 
                    "intensity" : 10, 
                    "type" : "point", 
                    "name" : "Point"
                }
            ]
        }
    }, 
    "scene" : 0, 
    "scenes" : [
        {
            "name" : "Scene", 
            "nodes" : [
                1, 
                2, 
                3, 
                5
            ]
        }
    ], 
    "nodes" : [
        {
            "camera" : 0, 
            "name" : "Camera_Orientation", 
            "rotation" : [
                -0.7071067690849304, 
                0, 
                0, 
                0.7071067690849304
            ]
        }, 
        {
            "children" : [
                0
            ], 
            "name" : "Camera", 
            "translation" : [
                0, 
                3.5, 
                0
            ]
        }, 
        {
            "mesh" : 0, 
            "name" : "Plane"
        }, 
        {
            "mesh" : 1, 
            "name" : "Plane.001", 
            "rotation" : [
                0.120660200715065, 
                0, 
                0, 
                0.9926938414573669
            ], 
            "translation" : [
                0, 
                0.25000491738319397, 
                0
            ]
        }, 
        {
            "extensions" : {
                "KHR_lights_punctual" : {
                    "light" : 0
                }
            }, 
            "name" : "Point_Orientation", 
            "rotation" : [
                -0.7071067690849304, 
                0, 
                0, 
                0.7071067690849304
            ]
        }, 
        {
            "children" : [
                4
            ], 
            "name" : "Point", 
            "translation" : [
                0, 
                0.20000000298023224, 
                -1.5
            ]
        }
    ], 
    "cameras" : [
        {
            "name" : "Camera", 
            "perspective" : {
                "aspectRatio" : 1, 
                "yfov" : 0.6911112070083618, 
                "zfar" : 100, 
                "znear" : 0.10000000149011612
            }, 
            "type" : "perspective"
        }
    ], 
    "materials" : [
        {
            "name" : "checkerboard", 
            "pbrMetallicRoughness" : {
                "baseColorTexture" : {
                    "index" : 0, 
                    "texCoord" : 0
                }
            }, 
            "extensions" : {
                "KHR_materials_specular" : {
                    "specularFactor" : 0
                }
            }
        }, 
        {
            "name" : "testmaterial", 
            "pbrMetallicRoughness" : {
                "baseColorFactor" : [
                    1, 
                    1, 
                    1, 
                    1
                ], 
                "metallicFactor" : 0, 
                "roughnessFactor" : 0.5
            }, 
            "extensions" : {
                "KHR_materials_specular" : {
                    "specularFactor" : 0
                }
            }, 
            "extras" : {
                "3DS_materials_translucency" : {
                    "translucencyFactor" : 1
                }
            }
        }
    ], 
    "meshes" : [
        {
            "name" : "Plane", 
            "primitives" : [
                {
                    "attributes" : {
                        "POSITION" : 0, 
                        "NORMAL" : 1, 
                        "TEXCOORD_0" : 2
                    }, 
                    "indices" : 3, 
                    "material" : 0
                }
            ]
        }, 
        {
            "name" : "Plane.001", 
            "primitives" : [
                {
                    "attributes" : {
                        "POSITION" : 4, 
                        "NORMAL" : 5, 
                        "TEXCOORD_0" : 6
                    }, 
                    "indices" : 3, 
                    "material" : 1
                }
            ]
        }
    ], 
    "textures" : [
        {
            "source" : 0
        }
    ], 
    "images" : [
        {
            "mimeType" : "image/png", 
            "name" : "checker", 
            "uri" : "checker.png"
        }
    ], 
    "accessors" : [
        {
            "bufferView" : 0, 
            "componentType" : 5126, 
            "count" : 4, 
            "max" : [
                1, 
                0, 
                1
            ], 
            "min" : [
                -1, 
                0, 
                -1
            ], 
            "type" : "VEC3"
        }, 
        {
            "bufferView" : 1, 
            "componentType" : 5126, 
            "count" : 4, 
            "type" : "VEC3"
        }, 
        {
            "bufferView" : 2, 
            "componentType" : 5126, 
            "count" : 4, 
            "type" : "VEC2"
        }, 
        {
            "bufferView" : 3, 
            "componentType" : 5123, 
            "count" : 6, 
            "type" : "SCALAR"
        }, 
        {
            "bufferView" : 4, 
            "componentType" : 5126, 
            "count" : 4, 
            "max" : [
                1, 
                0, 
                1
            ], 
            "min" : [
                -1, 
                0, 
                -1
            ], 
            "type" : "VEC3"
        }, 
        {
            "bufferView" : 5, 
            "componentType" : 5126, 
            "count" : 4, 
            "type" : "VEC3"
        }, 
        {
            "bufferView" : 6, 
            "componentType" : 5126, 
            "count" : 4, 
            "type" : "VEC2"
        }
    ], 
    "bufferViews" : [
        {
            "buffer" : 0, 
            "byteLength" : 48, 
            "byteOffset" : 0
        }, 
        {
            "buffer" : 0, 
            "byteLength" : 48, 
            "byteOffset" : 48
        }, 
        {
            "buffer" : 0, 
            "byteLength" : 32, 
            "byteOffset" : 96
        }, 
        {
            "buffer" : 0, 
            "byteLength" : 12, 
            "byteOffset" : 128
        }, 
        {
            "buffer" : 0, 
            "byteLength" : 48, 
            "byteOffset" : 140
        }, 
        {
            "buffer" : 0, 
            "byteLength" : 48, 
            "byteOffset" : 188
        }, 
        {
            "buffer" : 0, 
            "byteLength" : 32, 
            "byteOffset" : 236
        }
    ], 
    "buffers" : [
        {
            "byteLength" : 268, 
            "uri" : "checker.bin"
        }
    ]
}