{
    "asset" : {
        "generator" : "Khronos glTF Blender I/O v1.1.46. Modified by DS Enterprise PBR Validation Suite Scene Generator.", 
        "version" : "2.0"
    }, 
    "scene" : 0, 
    "scenes" : [
        {
            "name" : "Scene", 
            "nodes" : [
                1, 
                2
            ]
        }
    ], 
    "nodes" : [
        {
            "camera" : 0, 
            "name" : "Camera_Orientation", 
            "rotation" : [
                -0.7071067690849304, 
                0, 
                0, 
                0.7071067690849304
            ]
        }, 
        {
            "children" : [
                0
            ], 
            "name" : "Camera", 
            "rotation" : [
                0.537299633026123, 
                0, 
                0, 
                0.8433914184570312
            ], 
            "translation" : [
                0, 
                1.2999999523162842, 
                2
            ]
        }, 
        {
            "mesh" : 0, 
            "name" : "bobbel", 
            "rotation" : [
                -0.7071067690849304, 
                0, 
                0, 
                -0.7071067690849304
            ]
        }
    ], 
    "cameras" : [
        {
            "name" : "Camera", 
            "perspective" : {
                "yfov" : 0.6911112070083618, 
                "zfar" : 100, 
                "znear" : 0.10000000149011612
            }, 
            "type" : "perspective"
        }
    ], 
    "materials" : [
        {
            "doubleSided" : true, 
            "emissiveFactor" : [
                0, 
                0, 
                0
            ], 
            "name" : "testmaterial", 
            "pbrMetallicRoughness" : {
                "baseColorFactor" : [
                    0, 
                    1, 
                    0, 
                    1
                ], 
                "metallicFactor" : 0, 
                "roughnessFactor" : 0
            }, 
            "extensions" : {
                "KHR_materials_volume" : {
                    "thicknessFactor" : 1
                }, 
                "KHR_materials_transmission" : {
                    "transmissionFactor" : 1
                }, 
                "KHR_materials_specular" : {
                    "specularColorFactor" : [
                        1, 
                        0, 
                        0
                    ]
                }
            }
        }
    ], 
    "meshes" : [
        {
            "name" : "bobbel", 
            "primitives" : [
                {
                    "attributes" : {
                        "POSITION" : 0, 
                        "NORMAL" : 1, 
                        "TEXCOORD_0" : 2
                    }, 
                    "indices" : 3, 
                    "material" : 0
                }
            ]
        }
    ], 
    "accessors" : [
        {
            "bufferView" : 0, 
            "componentType" : 5126, 
            "count" : 10473, 
            "max" : [
                0.6689839959144592, 
                0.5235430002212524, 
                0.06727100163698196
            ], 
            "min" : [
                -0.6707599759101868, 
                -0.6621180176734924, 
                -0.7728220224380493
            ], 
            "type" : "VEC3"
        }, 
        {
            "bufferView" : 1, 
            "componentType" : 5126, 
            "count" : 10473, 
            "type" : "VEC3"
        }, 
        {
            "bufferView" : 2, 
            "componentType" : 5126, 
            "count" : 10473, 
            "type" : "VEC2"
        }, 
        {
            "bufferView" : 3, 
            "componentType" : 5123, 
            "count" : 61374, 
            "type" : "SCALAR"
        }
    ], 
    "bufferViews" : [
        {
            "buffer" : 0, 
            "byteLength" : 125676, 
            "byteOffset" : 0
        }, 
        {
            "buffer" : 0, 
            "byteLength" : 125676, 
            "byteOffset" : 125676
        }, 
        {
            "buffer" : 0, 
            "byteLength" : 83784, 
            "byteOffset" : 251352
        }, 
        {
            "buffer" : 0, 
            "byteLength" : 122748, 
            "byteOffset" : 335136
        }
    ], 
    "buffers" : [
        {
            "byteLength" : 457884, 
            "uri" : "ball.bin"
        }
    ], 
    "extensionsUsed" : [
        "KHR_materials_volume", 
        "KHR_materials_transmission", 
        "KHR_materials_specular"
    ], 
    "extensionsRequired" : [
        "KHR_materials_volume", 
        "KHR_materials_transmission", 
        "KHR_materials_specular"
    ]
}